<svg width="26" height="26" viewBox="0 0 26 26" fill="none" xmlns="http://www.w3.org/2000/svg">
<path fill-rule="evenodd" clip-rule="evenodd" d="M13 26C20.1797 26 26 20.1797 26 13C26 5.8203 20.1797 0 13 0C5.8203 0 0 5.8203 0 13C0 20.1797 5.8203 26 13 26ZM10.5 8.66987L18 13L10.5 17.3301L10.5 8.66987ZM19.25 12.567C19.5833 12.7594 19.5833 13.2406 19.25 13.433L10.25 18.6292C9.91667 18.8216 9.5 18.5811 9.5 18.1962L9.5 7.80385C9.5 7.41895 9.91667 7.17838 10.25 7.37083L19.25 12.567Z" fill="#FD878D"/>
</svg>
