<svg width="21" height="21" viewBox="0 0 21 21" fill="none" xmlns="http://www.w3.org/2000/svg">
    <path
        d="M7.88448 3.65568C9.04295 1.59358 9.62219 0.562528 10.5 0.562528C11.3778 0.562528 11.957 1.59358 13.1155 3.65568L13.7852 4.84773C14.1173 5.43891 14.2834 5.7345 14.5488 5.92733C14.8142 6.12015 15.1466 6.18674 15.8115 6.31992L17.1521 6.58846C19.4713 7.05301 20.6309 7.28528 20.9022 8.12013C21.1734 8.95499 20.3718 9.82448 18.7686 11.5635L17.8419 12.5687C17.3823 13.0673 17.1524 13.3166 17.0511 13.6286C16.9497 13.9406 16.9891 14.2773 17.0679 14.9508L17.2268 16.3088C17.5016 18.658 17.6391 19.8326 16.9289 20.3486C16.2187 20.8646 15.1441 20.3709 12.9948 19.3836L11.7523 18.8128C11.1361 18.5297 10.8281 18.3882 10.5 18.3882C10.1719 18.3882 9.86386 18.5297 9.24768 18.8128L8.00522 19.3836C5.85593 20.3709 4.78128 20.8646 4.07112 20.3486C3.36095 19.8326 3.49837 18.658 3.77323 16.3088L3.93211 14.9508C4.01091 14.2773 4.05031 13.9406 3.94893 13.6286C3.84756 13.3166 3.61775 13.0673 3.15813 12.5687L2.23137 11.5635C0.62818 9.82448 -0.173414 8.95499 0.0978458 8.12013C0.369105 7.28528 1.52869 7.05301 3.84785 6.58847L5.1885 6.31992C5.85337 6.18674 6.18581 6.12015 6.45122 5.92733C6.71662 5.7345 6.88268 5.43891 7.2148 4.84773L7.88448 3.65568Z"
        fill="#FFC462" />
</svg>